<?xml version="1.0" encoding="UTF-8"?>
<svg width="110px" height="110px" viewBox="0 0 110 110" version="1.1" xmlns="http://www.w3.org/2000/svg" xmlns:xlink="http://www.w3.org/1999/xlink">
    <title>elevated-circle</title>
    <defs>
        <circle id="path-1" cx="50" cy="50" r="50"></circle>
        <filter x="-8.0%" y="-7.0%" width="116.0%" height="116.0%" filterUnits="objectBoundingBox" id="filter-2">
            <feOffset dx="0" dy="2" in="SourceAlpha" result="shadowOffsetOuter1"></feOffset>
            <feGaussianBlur stdDeviation="1" in="shadowOffsetOuter1" result="shadowBlurOuter1"></feGaussianBlur>
            <feColorMatrix values="0 0 0 0 0   0 0 0 0 0   0 0 0 0 0  0 0 0 0.141176471 0" type="matrix" in="shadowBlurOuter1" result="shadowMatrixOuter1"></feColorMatrix>
            <feMorphology radius="1" operator="erode" in="SourceAlpha" result="shadowSpreadOuter2"></feMorphology>
            <feOffset dx="0" dy="3" in="shadowSpreadOuter2" result="shadowOffsetOuter2"></feOffset>
            <feGaussianBlur stdDeviation="0.5" in="shadowOffsetOuter2" result="shadowBlurOuter2"></feGaussianBlur>
            <feColorMatrix values="0 0 0 0 0   0 0 0 0 0   0 0 0 0 0  0 0 0 0.121568627 0" type="matrix" in="shadowBlurOuter2" result="shadowMatrixOuter2"></feColorMatrix>
            <feOffset dx="0" dy="1" in="SourceAlpha" result="shadowOffsetOuter3"></feOffset>
            <feGaussianBlur stdDeviation="2.5" in="shadowOffsetOuter3" result="shadowBlurOuter3"></feGaussianBlur>
            <feColorMatrix values="0 0 0 0 0   0 0 0 0 0   0 0 0 0 0  0 0 0 0.2 0" type="matrix" in="shadowBlurOuter3" result="shadowMatrixOuter3"></feColorMatrix>
            <feMerge>
                <feMergeNode in="shadowMatrixOuter1"></feMergeNode>
                <feMergeNode in="shadowMatrixOuter2"></feMergeNode>
                <feMergeNode in="shadowMatrixOuter3"></feMergeNode>
            </feMerge>
        </filter>
    </defs>
    <g id="Logo" stroke="none" stroke-width="1" fill="none" fill-rule="evenodd">
        <g id="elevated-circle" transform="translate(5.000000, 4.000000)">
            <g id="Oval">
                <use fill="black" fill-opacity="1" filter="url(#filter-2)" xlink:href="#path-1"></use>
                <use fill="#202327" fill-rule="evenodd" xlink:href="#path-1"></use>
            </g>
            <g id="Group" transform="translate(10.000000, 10.000000)" fill-rule="nonzero">
                <g id="icon-white">
                    <g id="outer" fill="#D2D6DC">
                        <path d="M14.3506494,22.7012987 C9.19488679,22.7012987 5,18.5064119 5,13.3519271 C5,8.19488684 9.19488679,4 14.3506494,4 C19.5064119,4 23.7012987,8.19488684 23.7012987,13.3519271 C23.7012987,18.5064119 19.5064119,22.7012987 14.3506494,22.7012987 L14.3506494,22.7012987 Z M14.3506494,8.64465846 C11.7567961,8.64465846 9.64465846,10.7567961 9.64465846,13.3519271 C9.64465846,15.9457804 11.7567961,18.0566402 14.3506494,18.0566402 C16.9457804,18.0566402 19.0566402,15.9457804 19.0566402,13.3519271 C19.0566402,10.7567961 16.9457804,8.64465846 14.3506494,8.64465846 L14.3506494,8.64465846 Z" id="Fill-1"></path>
                        <path d="M7.10542736e-15,39.9993579 C7.10542736e-15,31.0699436 2.87929623,22.6221245 8.32709936,15.5690046 L13.868653,19.8494213 C9.37761868,25.6645209 7.00303406,32.6328801 7.00303406,39.9993579 C7.00303406,58.1933764 21.8053393,72.9969659 40.0006421,72.9969659 C58.1946608,72.9969659 72.996966,58.1933764 72.996966,39.9993579 C72.996966,21.804055 58.1946608,7.00303405 40.0006421,7.00303405 C33.9607981,7.00303405 28.0558009,8.64687845 22.9226398,11.7586246 L19.2907711,5.77015074 C25.5194003,1.99572986 32.6803975,0 40.0006421,0 C62.0564109,0 80,17.9435892 80,39.9993579 C80,62.0551265 62.0564109,80 40.0006421,80 C17.9435891,80 7.10542736e-15,62.0551265 7.10542736e-15,39.9993579 Z" id="Fill-5"></path>
                    </g>
                    <g id="inner" transform="translate(16.000000, 17.000000)" fill="#D2D6DC">
                        <path d="M44.3650582,28.737864 C40.8551613,28.737864 38,25.8793923 38,22.3682896 C38,18.8559024 40.8551613,16 44.3650582,16 C47.8736714,16 50.7288326,18.8559024 50.7288326,22.3682896 C50.7288326,25.8793923 47.8736714,28.737864 44.3650582,28.737864 L44.3650582,28.737864 Z M44.501891,20 C43.121407,20 42,21.1222025 42,22.5017737 C42,23.8813449 43.121407,25.0035475 44.501891,25.0035475 C45.8804841,25.0035475 47,23.8813449 47,22.5017737 C47,21.1222025 45.8804841,20 44.501891,20 L44.501891,20 Z" id="Fill-2"></path>
                        <path d="M1.20792265e-13,23.086726 C1.20792265e-13,10.3560643 10.4480942,0 23.2902691,0 C34.2400931,0 43.5793778,7.38226945 46.0011127,17.9537315 L41.3327873,19.0059171 C39.4101484,10.6093199 31.9908689,4.7452784 23.2902691,4.7452784 C13.0884307,4.7452784 4.78816118,12.9734737 4.78816118,23.086726 C4.78816118,33.2012836 13.0884307,41.4294789 23.2902691,41.4294789 C32.1107046,41.4294789 39.7446349,35.2129684 41.4434048,26.6505802 L46.1420185,27.5656943 C44.002095,38.3486378 34.3928507,46.1747573 23.2902691,46.1747573 C10.4480942,46.1747573 1.20792265e-13,35.8173876 1.20792265e-13,23.086726 Z" id="Fill-3-Copy"></path>
                    </g>
                    <g id="center" transform="translate(33.543707, 33.043093)" fill="#FF6347">
                        <path d="M12.3895736,6.92778058 C12.3895736,10.22579 9.71887951,12.8986543 6.42354806,12.8986543 C3.1282165,12.8986543 0.456292878,10.22579 0.456292878,6.92778058 C0.456292878,3.62977112 3.1282165,0.95690681 6.42354806,0.95690681 C9.71887951,0.95690681 12.3895736,3.62977112 12.3895736,6.92778058" id="Fill-4"></path>
                    </g>
                </g>
            </g>
        </g>
    </g>
</svg>